<svg width="280" height="280" viewBox="0 0 280 280" fill="none" xmlns="http://www.w3.org/2000/svg">
  <path
    d="M140 279.998C217.32 279.998 280 217.318 280 139.999C280 62.6797 217.32 0 140 0C62.6801 0 0 62.6797 0 139.999C0 217.318 62.6801 279.998 140 279.998Z"
    fill="#FFE255"/>
  <path
    d="M140 276.512C215.395 276.512 276.514 215.393 276.514 139.999C276.514 64.6049 215.395 3.48581 140 3.48581C64.6053 3.48581 3.48584 64.6049 3.48584 139.999C3.48584 215.393 64.6053 276.512 140 276.512Z"
    fill="#FFCC3E"/>
  <path
    d="M140 250.92C201.26 250.92 250.922 201.259 250.922 139.999C250.922 78.7393 201.26 29.0785 140 29.0785C78.74 29.0785 29.0789 78.7393 29.0789 139.999C29.0789 201.259 78.74 250.92 140 250.92Z"
    fill="#FFE357"/>
  <path
    d="M140 247.301C199.261 247.301 247.302 199.26 247.302 139.999C247.302 80.738 199.261 32.6973 140 32.6973C80.7385 32.6973 32.6975 80.738 32.6975 139.999C32.6975 199.26 80.7385 247.301 140 247.301Z"
    fill="#E59638"/>
  <path
    d="M247.302 139.999C247.302 141.389 247.275 142.771 247.225 144.146C245.043 86.8093 197.871 40.9957 140 40.9957C82.1285 40.9957 34.9573 86.8093 32.7748 144.146C32.7227 142.771 32.6975 141.389 32.6975 139.999C32.6975 80.7384 80.7388 32.6973 140 32.6973C199.261 32.6973 247.302 80.7384 247.302 139.999Z"
    fill="#CC8232"/>
  <path d="M67.2358 191.596V96.402H87.3382V175.002H128.1V191.596H67.2358Z" fill="#CC8232"/>
  <path
    d="M198.735 127.173C198.085 124.911 197.172 122.912 195.996 121.177C194.82 119.41 193.381 117.923 191.679 116.714C190.007 115.475 188.088 114.53 185.922 113.879C183.786 113.228 181.418 112.903 178.819 112.903C173.959 112.903 169.688 114.111 166.005 116.529C162.353 118.946 159.505 122.463 157.463 127.08C155.42 131.666 154.399 137.275 154.399 143.906C154.399 150.537 155.405 156.177 157.416 160.825C159.428 165.474 162.276 169.022 165.959 171.47C169.642 173.887 173.99 175.095 179.004 175.095C183.554 175.095 187.438 174.29 190.657 172.678C193.907 171.036 196.383 168.727 198.085 165.752C199.819 162.778 200.685 159.261 200.685 155.201L204.771 155.805H180.258V140.652H220.045V152.645C220.045 161.011 218.281 168.2 214.752 174.212C211.224 180.193 206.365 184.81 200.175 188.064C193.984 191.286 186.897 192.898 178.912 192.898C169.998 192.898 162.167 190.93 155.42 186.995C148.673 183.028 143.411 177.404 139.635 170.122C135.89 162.809 134.018 154.132 134.018 144.092C134.018 136.376 135.132 129.497 137.36 123.454C139.62 117.381 142.777 112.237 146.831 108.022C150.886 103.808 155.606 100.601 160.991 98.4007C166.377 96.2006 172.211 95.1005 178.494 95.1005C183.879 95.1005 188.893 95.8907 193.536 97.4711C198.178 99.0205 202.295 101.221 205.885 104.071C209.506 106.922 212.462 110.315 214.752 114.251C217.043 118.155 218.513 122.463 219.163 127.173H198.735Z"
    fill="#CC8232"/>
  <path
    d="M280 139.999C280 216.394 218.81 278.497 142.767 279.969C141.848 279.989 140.924 279.998 140 279.998C135.477 279.998 131.006 279.784 126.592 279.364C120.37 278.772 114.267 277.774 108.309 276.396C91.8903 272.597 76.5789 265.909 62.9375 256.897C59.5344 254.65 56.2355 252.259 53.0481 249.73C41.9973 240.962 32.302 230.562 24.3272 218.889C21.422 214.64 18.7452 210.221 16.3164 205.649C14.0512 201.39 12 197 10.1753 192.493C8.19955 187.616 6.49169 182.6 5.06966 177.466C2.55461 168.394 0.931236 158.951 0.300225 149.239C0.100674 146.183 0 143.102 0 139.996C0 138.523 0.0233708 137.058 0.0683146 135.596C0.203146 139.945 0.533933 144.242 1.05708 148.481C2.20045 157.768 4.25348 166.776 7.12449 175.409C8.76404 180.346 10.6733 185.158 12.8342 189.832C14.8369 194.172 17.0589 198.393 19.4822 202.481C22.0926 206.886 24.9402 211.138 28.0018 215.213C36.4764 226.492 46.6139 236.45 58.053 244.719C61.3753 247.123 64.809 249.383 68.3398 251.491C82.6445 260.032 98.6013 266.094 115.617 269.082C121.895 270.183 128.315 270.867 134.849 271.103C136.559 271.166 138.276 271.198 140 271.198C144.058 271.198 148.076 271.026 152.049 270.686C222.287 264.701 277.733 206.854 279.932 135.598C279.977 137.058 280 138.525 280 139.997V139.999Z"
    fill="#E59638"/>
  <path
    d="M76.3702 226.408L53.0498 249.728C41.999 240.962 32.3037 230.56 24.3289 218.889L28.0017 215.217L47.9873 195.231C55.3077 207.404 64.9796 218.005 76.3702 226.406V226.408Z"
    fill="#FFE357"/>
  <path
    d="M249.729 53.0478L226.409 76.3681C218.008 64.9776 207.407 55.3057 195.234 47.9853L218.893 24.3271C230.564 32.3018 240.965 41.9971 249.731 53.0478H249.729Z"
    fill="#FFE357"/>
  <path
    d="M40.8557 181.112L16.3164 205.651C14.0512 201.392 12 197.002 10.1753 192.495L36.0288 166.642C37.2998 171.612 38.916 176.446 40.8557 181.112Z"
    fill="#FFE357"/>
  <path
    d="M205.652 16.3163L181.113 40.8555C176.448 38.9175 171.614 37.2996 166.643 36.0285L192.496 10.1752C197.003 11.9999 201.393 14.0512 205.652 16.3163Z"
    fill="#FFE357"/>
  <path
    d="M185.56 237.176L152.048 270.688L142.767 279.969C141.848 279.989 140.924 279.998 140 279.998C135.477 279.998 131.006 279.784 126.592 279.364L160.638 245.318C169.37 243.617 177.724 240.856 185.559 237.178L185.56 237.176Z"
    fill="#FFE357"/>
  <path
    d="M280 139.999C280 140.923 279.991 141.847 279.971 142.766L237.177 185.559C240.857 177.723 243.617 169.371 245.318 160.639L279.364 126.593C279.784 131.007 279.998 135.478 279.998 140.001L280 139.999Z"
    fill="#FFE357"/>
  <path
    d="M32.6975 139.999C32.6975 143.178 32.8359 146.324 33.1074 149.432L7.12627 175.413L5.07144 177.468C2.55638 168.396 0.933013 158.953 0.302002 149.241L35.9802 113.563C33.8373 122.02 32.6993 130.876 32.6993 139.997L32.6975 139.999Z"
    fill="#FFE357"/>
  <path
    d="M177.469 5.06964L149.433 33.1054C146.326 32.834 143.178 32.6955 140 32.6955C130.878 32.6955 122.023 33.8335 113.566 35.9764L149.244 0.300232C158.956 0.933037 168.397 2.5564 177.471 5.06964H177.469Z"
    fill="#FFE357"/>
  <path
    d="M137.435 247.272L108.309 276.397C91.8903 272.599 76.5788 265.911 62.9375 256.899L68.3398 251.497L86.6912 233.145C101.702 241.755 118.991 246.841 137.433 247.274L137.435 247.272Z"
    fill="#FFE357"/>
  <path
    d="M276.399 108.309L247.274 137.434C246.841 118.993 241.755 101.704 233.145 86.6925L256.899 62.9389C265.911 76.5802 272.599 91.8916 276.397 108.31L276.399 108.309Z"
    fill="#FFE357"/>
  <path
    d="M58.053 244.723L53.048 249.728C41.9973 240.962 32.302 230.56 24.3271 218.889L28 215.217C36.4746 226.496 46.6121 236.453 58.0512 244.723H58.053Z"
    fill="#FCBB47"/>
  <path
    d="M19.4823 202.485L16.3164 205.651C14.0512 201.392 12 197.002 10.1753 192.495L12.8342 189.836C14.8369 194.176 17.0589 198.397 19.4823 202.485Z"
    fill="#FCBB47"/>
  <path
    d="M152.048 270.689L142.767 279.971C141.848 279.991 140.924 280 140 280C135.477 280 131.006 279.786 126.592 279.365L134.849 271.108C136.559 271.171 138.276 271.204 140 271.204C144.057 271.204 148.075 271.031 152.048 270.691V270.689Z"
    fill="#FCBB47"/>
  <path
    d="M7.12432 175.413L5.06949 177.468C2.55443 168.396 0.93106 158.953 0.300049 149.241L1.0569 148.484C2.20027 157.772 4.25331 166.78 7.12432 175.413Z"
    fill="#FCBB47"/>
  <path
    d="M115.619 269.088L108.309 276.397C91.8903 272.599 76.5788 265.911 62.9375 256.899L68.3398 251.497C82.6445 260.038 98.6013 266.1 115.617 269.088H115.619Z"
    fill="#FCBB47"/>
  <path d="M67.2358 183.506V88.3122H87.3382V166.912H128.1V183.506H67.2358Z" fill="#FFCC3E"/>
  <path
    d="M198.735 119.083C198.085 116.821 197.172 114.822 195.996 113.087C194.82 111.321 193.381 109.833 191.679 108.625C190.007 107.385 188.088 106.44 185.922 105.789C183.786 105.138 181.418 104.813 178.819 104.813C173.959 104.813 169.688 106.022 166.005 108.439C162.353 110.856 159.505 114.373 157.463 118.99C155.42 123.576 154.399 129.185 154.399 135.816C154.399 142.448 155.405 148.087 157.416 152.736C159.428 157.384 162.276 160.932 165.959 163.38C169.642 165.797 173.99 167.005 179.004 167.005C183.554 167.005 187.438 166.2 190.657 164.588C193.907 162.946 196.383 160.637 198.085 157.663C199.819 154.688 200.685 151.171 200.685 147.111L204.771 147.716H180.258V132.563H220.045V144.555C220.045 152.921 218.281 160.111 214.752 166.122C211.224 172.103 206.365 176.72 200.175 179.974C193.984 183.196 186.897 184.808 178.912 184.808C169.998 184.808 162.167 182.84 155.42 178.905C148.673 174.938 143.411 169.314 139.635 162.032C135.89 154.719 134.018 146.042 134.018 136.002C134.018 128.286 135.132 121.407 137.36 115.364C139.62 109.291 142.777 104.147 146.831 99.9325C150.886 95.7182 155.606 92.511 160.991 90.3109C166.377 88.1107 172.211 87.0107 178.494 87.0107C183.879 87.0107 188.893 87.8009 193.536 89.3812C198.178 90.9306 202.295 93.1308 205.885 95.9816C209.506 98.8325 212.462 102.226 214.752 106.161C217.043 110.066 218.513 114.373 219.163 119.083H198.735Z"
    fill="#FFCC3E"/>
  <path fill-rule="evenodd" clip-rule="evenodd"
        d="M67.2358 163.38V122.748L87.3382 99.9325V148.888L67.2358 163.38ZM87.3382 166.912L67.2358 179.974V183.506H128.1V166.912H87.3382ZM67.2358 88.3122H77.287L67.2358 98.552V88.3122Z"
        fill="#FFE357"/>
  <path fill-rule="evenodd" clip-rule="evenodd"
        d="M198.735 119.083C198.085 116.821 197.172 114.822 195.996 113.087C194.82 111.321 193.381 109.833 191.679 108.625C190.007 107.385 188.088 106.44 185.922 105.789C185.385 105.626 184.834 105.483 184.268 105.36L200.685 92.5098C202.526 93.5337 204.26 94.691 205.885 95.9816C209.506 98.8325 212.462 102.226 214.752 106.161C217.043 110.066 218.513 114.373 219.163 119.083H198.735ZM157.463 118.99C155.42 123.576 154.399 129.185 154.399 135.816C154.399 142.448 155.405 148.087 157.416 152.736C159.428 157.384 162.276 160.932 165.959 163.38C169.642 165.797 173.99 167.005 179.004 167.005C183.554 167.005 187.438 166.2 190.657 164.588C193.907 162.946 196.383 160.637 198.085 157.663C199.732 154.836 200.596 151.521 200.679 147.716H180.258V132.563H220.045V144.555L169.614 184.027C164.444 183.116 159.713 181.408 155.42 178.905C148.673 174.938 143.411 169.314 139.635 162.032C135.89 154.719 134.018 146.042 134.018 136.002L157.463 118.99ZM198.735 180.686C199.22 180.458 199.7 180.221 200.175 179.974C206.365 176.72 211.224 172.103 214.752 166.122L198.735 180.686ZM141.919 106.161C143.376 103.898 145.014 101.822 146.831 99.9325C150.886 95.7182 155.606 92.511 160.991 90.3109C164.788 88.7598 168.807 87.7555 173.05 87.2979L141.919 106.161Z"
        fill="#FFE357"/>
</svg>
