<svg width="45" height="46" viewBox="0 0 45 46" fill="none" xmlns="http://www.w3.org/2000/svg">
  <path
    d="M22.5 45.4997C34.9264 45.4997 45 35.4262 45 22.9999C45 10.5735 34.9264 0.5 22.5 0.5C10.0736 0.5 0 10.5735 0 22.9999C0 35.4262 10.0736 45.4997 22.5 45.4997Z"
    fill="#FFE255"/>
  <path
    d="M22.5001 44.9395C34.6171 44.9395 44.4399 35.1168 44.4399 22.9999C44.4399 10.8829 34.6171 1.06023 22.5001 1.06023C10.3831 1.06023 0.560303 10.8829 0.560303 22.9999C0.560303 35.1168 10.3831 44.9395 22.5001 44.9395Z"
    fill="#FFCC3E"/>
  <path
    d="M22.5 40.8264C32.3454 40.8264 40.3266 32.8452 40.3266 22.9999C40.3266 13.1545 32.3454 5.17332 22.5 5.17332C12.6546 5.17332 4.67334 13.1545 4.67334 22.9999C4.67334 32.8452 12.6546 40.8264 22.5 40.8264Z"
    fill="#FFE357"/>
  <path
    d="M22.4999 40.2448C32.0241 40.2448 39.745 32.524 39.745 22.9999C39.745 13.4757 32.0241 5.75493 22.4999 5.75493C12.9758 5.75493 5.25488 13.4757 5.25488 22.9999C5.25488 32.524 12.9758 40.2448 22.4999 40.2448Z"
    fill="#E59638"/>
  <path
    d="M39.745 22.9999C39.745 23.2232 39.7406 23.4454 39.7325 23.6664C39.3818 14.4515 31.8007 7.0886 22.4999 7.0886C13.1992 7.0886 5.61806 14.4515 5.26731 23.6664C5.25893 23.4454 5.25488 23.2232 5.25488 22.9999C5.25488 13.4758 12.9758 5.75493 22.4999 5.75493C32.024 5.75493 39.745 13.4758 39.745 22.9999Z"
    fill="#CC8232"/>
  <path d="M10.8057 31.2922V15.9932H14.0364V28.6254H20.5874V31.2922H10.8057Z" fill="#CC8232"/>
  <path
    d="M31.9395 20.9385C31.8351 20.5749 31.6883 20.2537 31.4993 19.9748C31.3103 19.691 31.079 19.4519 30.8054 19.2577C30.5368 19.0585 30.2284 18.9066 29.8802 18.802C29.537 18.6974 29.1565 18.6451 28.7386 18.6451C27.9577 18.6451 27.2712 18.8393 26.6793 19.2278C26.0923 19.6162 25.6347 20.1815 25.3064 20.9235C24.9781 21.6606 24.814 22.562 24.814 23.6278C24.814 24.6935 24.9756 25.5999 25.299 26.3469C25.6223 27.094 26.0799 27.6642 26.6718 28.0576C27.2638 28.4461 27.9626 28.6403 28.7685 28.6403C29.4997 28.6403 30.1239 28.5108 30.6413 28.2519C31.1635 27.9879 31.5615 27.6169 31.8351 27.1388C32.1136 26.6607 32.2529 26.0954 32.2529 25.443L32.9095 25.5402H28.9699V23.1049H35.3643V25.0322C35.3643 26.3768 35.0807 27.5322 34.5137 28.4984C33.9466 29.4595 33.1657 30.2016 32.1708 30.7245C31.176 31.2424 30.0369 31.5014 28.7535 31.5014C27.321 31.5014 26.0625 31.1852 24.9781 30.5527C23.8937 29.9152 23.0481 29.0113 22.4413 27.841C21.8394 26.6657 21.5385 25.2712 21.5385 23.6576C21.5385 22.4176 21.7175 21.312 22.0757 20.3409C22.4388 19.3647 22.9462 18.538 23.5978 17.8607C24.2494 17.1834 25.008 16.668 25.8735 16.3144C26.739 15.9608 27.6766 15.784 28.6864 15.784C29.5519 15.784 30.3577 15.911 31.1039 16.165C31.85 16.414 32.5116 16.7676 33.0886 17.2258C33.6705 17.6839 34.1456 18.2293 34.5137 18.8618C34.8818 19.4893 35.118 20.1815 35.2225 20.9385H31.9395Z"
    fill="#CC8232"/>
  <path
    d="M45 22.9999C45 35.2776 35.1659 45.2585 22.9447 45.4951C22.797 45.4983 22.6485 45.4997 22.5 45.4997C21.7731 45.4997 21.0545 45.4653 20.3452 45.3977C19.3452 45.3027 18.3643 45.1423 17.4068 44.9207C14.7681 44.3102 12.3073 43.2354 10.115 41.7871C9.56803 41.4259 9.03785 41.0416 8.52559 40.6351C6.74957 39.226 5.1914 37.5546 3.90973 35.6786C3.44283 34.9956 3.01262 34.2855 2.62228 33.5507C2.25823 32.8663 1.92857 32.1607 1.63531 31.4364C1.31778 30.6525 1.04331 29.8465 0.814767 29.0213C0.410562 27.5634 0.149663 26.0457 0.0482504 24.4849C0.0161798 23.9937 0 23.4985 0 22.9993C0 22.7626 0.00375602 22.5272 0.0109791 22.2923C0.0326485 22.9912 0.0858106 23.6817 0.169888 24.363C0.353644 25.8556 0.683596 27.3034 1.14501 28.6908C1.40851 29.4841 1.71535 30.2576 2.06263 31.0088C2.38449 31.7062 2.74161 32.3846 3.13108 33.0417C3.55059 33.7495 4.00825 34.4328 4.50029 35.0878C5.86228 36.9005 7.49153 38.5008 9.32995 39.8299C9.86388 40.2162 10.4157 40.5794 10.9832 40.9183C13.2822 42.2909 15.8466 43.2652 18.5813 43.7454C19.5902 43.9222 20.622 44.0323 21.6722 44.0701C21.947 44.0802 22.2229 44.0854 22.5 44.0854C23.1521 44.0854 23.7978 44.0577 24.4364 44.0031C35.7247 43.0413 44.6357 33.7443 44.989 22.2926C44.9962 22.5272 45 22.7629 45 22.9996V22.9999Z"
    fill="#E59638"/>
  <path
    d="M12.2737 36.8869L8.52577 40.6348C6.74975 39.226 5.19158 37.5543 3.90991 35.6787L4.50018 35.0884L7.71216 31.8764C8.88866 33.8327 10.4431 35.5365 12.2737 36.8866V36.8869Z"
    fill="#FFE357"/>
  <path
    d="M40.1351 9.02553L36.3872 12.7734C35.0371 10.9428 33.3333 9.38842 31.377 8.21192L35.1792 4.4097C37.0549 5.69136 38.7266 7.24952 40.1354 9.02553H40.1351Z"
    fill="#FFE357"/>
  <path
    d="M6.56604 29.6072L2.62222 33.551C2.25818 32.8666 1.92851 32.161 1.63525 31.4367L5.79028 27.2817C5.99455 28.0806 6.25429 28.8575 6.56604 29.6072Z"
    fill="#FFE357"/>
  <path
    d="M33.0514 3.12226L29.1075 7.06605C28.3578 6.7546 27.5809 6.49456 26.782 6.2903L30.937 2.1353C31.6613 2.42856 32.3669 2.75822 33.0514 3.12226Z"
    fill="#FFE357"/>
  <path
    d="M29.8222 38.6176L24.4364 44.0034L22.9447 45.4951C22.797 45.4983 22.6485 45.4997 22.5 45.4997C21.7731 45.4997 21.0545 45.4653 20.3452 45.3977L25.8169 39.9261C27.2202 39.6528 28.5628 39.209 29.8219 38.6179L29.8222 38.6176Z"
    fill="#FFE357"/>
  <path
    d="M45.0001 22.9998C45.0001 23.1484 44.9987 23.2969 44.9955 23.4445L38.1179 30.322C38.7093 29.0626 39.1528 27.7203 39.4262 26.317L44.8978 20.8454C44.9654 21.5547 44.9998 22.2732 44.9998 23.0001L45.0001 22.9998Z"
    fill="#FFE357"/>
  <path
    d="M5.255 22.9999C5.255 23.5107 5.27725 24.0163 5.32088 24.5158L1.14534 28.6913L0.815101 29.0216C0.410895 27.5637 0.149996 26.046 0.048584 24.4852L5.78258 18.7513C5.43818 20.1103 5.25529 21.5336 5.25529 22.9996L5.255 22.9999Z"
    fill="#FFE357"/>
  <path
    d="M28.5218 1.31476L24.016 5.82051C23.5168 5.77688 23.0109 5.75464 22.5001 5.75464C21.0341 5.75464 19.6108 5.93752 18.2517 6.28192L23.9857 0.548248C25.5465 0.649949 27.0639 0.910846 28.5221 1.31476H28.5218Z"
    fill="#FFE357"/>
  <path
    d="M22.0877 40.2402L17.4069 44.921C14.7681 44.3105 12.3073 43.2357 10.115 41.7874L10.9832 40.9191L13.9326 37.9698C16.3451 39.3535 19.1237 40.1708 22.0874 40.2405L22.0877 40.2402Z"
    fill="#FFE357"/>
  <path
    d="M44.4213 17.9067L39.7404 22.5876C39.6708 19.6238 38.8534 16.8452 37.4697 14.4327L41.2873 10.6152C42.7357 12.8075 43.8105 15.2683 44.421 17.907L44.4213 17.9067Z"
    fill="#FFE357"/>
  <path
    d="M9.32989 39.8305L8.52553 40.6348C6.74951 39.226 5.19134 37.5543 3.90967 35.6786L4.49994 35.0884C5.86193 36.9011 7.49118 38.5014 9.3296 39.8305H9.32989Z"
    fill="#FCBB47"/>
  <path
    d="M3.13102 33.0422L2.62222 33.551C2.25818 32.8666 1.92851 32.161 1.63525 31.4367L2.06257 31.0094C2.38444 31.7068 2.74155 32.3852 3.13102 33.0422Z"
    fill="#FCBB47"/>
  <path
    d="M24.4364 44.0037L22.9447 45.4954C22.797 45.4985 22.6485 45.5 22.5 45.5C21.7731 45.5 21.0545 45.4656 20.3452 45.398L21.6722 44.071C21.947 44.0811 22.2229 44.0863 22.5 44.0863C23.1521 44.0863 23.7979 44.0586 24.4364 44.004V44.0037Z"
    fill="#FCBB47"/>
  <path
    d="M1.1451 28.6913L0.814857 29.0216C0.410651 27.5637 0.149752 26.046 0.0483398 24.4852L0.169977 24.3636C0.353733 25.8561 0.683685 27.3039 1.1451 28.6913Z"
    fill="#FCBB47"/>
  <path
    d="M18.5816 43.7462L17.4069 44.921C14.7681 44.3105 12.3073 43.2357 10.115 41.7873L10.9832 40.9191C13.2822 42.2918 15.8467 43.266 18.5813 43.7462H18.5816Z"
    fill="#FCBB47"/>
  <path d="M10.8057 29.9921V14.693H14.0364V27.3252H20.5874V29.9921H10.8057Z" fill="#FFCC3E"/>
  <path
    d="M31.9395 19.6383C31.8351 19.2748 31.6883 18.9536 31.4993 18.6747C31.3103 18.3908 31.079 18.1517 30.8054 17.9575C30.5368 17.7583 30.2284 17.6064 29.8802 17.5018C29.537 17.3973 29.1565 17.345 28.7386 17.345C27.9577 17.345 27.2712 17.5392 26.6793 17.9276C26.0923 18.3161 25.6347 18.8813 25.3064 19.6234C24.9781 20.3604 24.814 21.2619 24.814 22.3276C24.814 23.3934 24.9756 24.2998 25.299 25.0468C25.6223 25.7938 26.0799 26.364 26.6718 26.7575C27.2638 27.1459 27.9626 27.3401 28.7685 27.3401C29.4997 27.3401 30.1239 27.2107 30.6413 26.9517C31.1635 26.6877 31.5615 26.3167 31.8351 25.8386C32.1136 25.3605 32.2529 24.7953 32.2529 24.1429L32.9095 24.24H28.9699V21.8047H35.3643V23.732C35.3643 25.0767 35.0807 26.2321 34.5137 27.1982C33.9466 28.1594 33.1657 28.9014 32.1708 29.4243C31.176 29.9423 30.0369 30.2013 28.7535 30.2013C27.321 30.2013 26.0625 29.885 24.9781 29.2525C23.8937 28.6151 23.0481 27.7112 22.4413 26.5408C21.8394 25.3655 21.5385 23.9711 21.5385 22.3575C21.5385 21.1174 21.7175 20.0118 22.0757 19.0407C22.4388 18.0646 22.9462 17.2379 23.5978 16.5606C24.2494 15.8833 25.008 15.3678 25.8735 15.0142C26.739 14.6607 27.6766 14.4839 28.6864 14.4839C29.5519 14.4839 30.3577 14.6109 31.1039 14.8648C31.85 15.1138 32.5116 15.4674 33.0886 15.9256C33.6705 16.3838 34.1456 16.9291 34.5137 17.5616C34.8818 18.1891 35.118 18.8813 35.2225 19.6383H31.9395Z"
    fill="#FFCC3E"/>
  <path fill-rule="evenodd" clip-rule="evenodd"
        d="M10.8057 26.7575V20.2274L14.0364 16.5606V24.4285L10.8057 26.7575ZM14.0364 27.3252L10.8057 29.4243V29.9921H20.5874V27.3252H14.0364ZM10.8057 14.693H12.421L10.8057 16.3387V14.693Z"
        fill="#FFE357"/>
  <path fill-rule="evenodd" clip-rule="evenodd"
        d="M31.9395 19.6383C31.8351 19.2748 31.6883 18.9536 31.4993 18.6747C31.3103 18.3908 31.079 18.1517 30.8054 17.9575C30.5368 17.7583 30.2284 17.6064 29.8802 17.5018C29.794 17.4756 29.7054 17.4526 29.6144 17.4329L32.2529 15.3676C32.5488 15.5322 32.8273 15.7182 33.0886 15.9256C33.6705 16.3838 34.1456 16.9291 34.5137 17.5616C34.8818 18.1891 35.118 18.8813 35.2225 19.6383H31.9395ZM25.3064 19.6234C24.9781 20.3604 24.814 21.2619 24.814 22.3276C24.814 23.3934 24.9756 24.2998 25.299 25.0468C25.6223 25.7938 26.0799 26.364 26.6718 26.7575C27.2638 27.1459 27.9626 27.3401 28.7685 27.3401C29.4997 27.3401 30.1239 27.2107 30.6413 26.9517C31.1635 26.6877 31.5615 26.3167 31.8351 25.8386C32.0997 25.3844 32.2386 24.8515 32.2519 24.24H28.9699V21.8047H35.3643V23.732L27.2593 30.0757C26.4284 29.9293 25.668 29.6549 24.9781 29.2525C23.8937 28.6151 23.0481 27.7112 22.4413 26.5408C21.8394 25.3655 21.5385 23.9711 21.5385 22.3575L25.3064 19.6234ZM31.9395 29.5389C32.0175 29.5022 32.0946 29.464 32.1708 29.4243C33.1657 28.9014 33.9466 28.1594 34.5137 27.1982L31.9395 29.5389ZM22.8084 17.5616C23.0425 17.1979 23.3057 16.8642 23.5978 16.5606C24.2494 15.8833 25.008 15.3678 25.8735 15.0142C26.4836 14.765 27.1297 14.6036 27.8115 14.53L22.8084 17.5616Z"
        fill="#FFE357"/>
</svg>
