<svg width="40" height="40" viewBox="0 0 40 40" fill="none" xmlns="http://www.w3.org/2000/svg">
  <rect width="40" height="40" rx="20" fill="#0098EA"/>
  <path
    d="M26.8309 11H13.1725C10.6612 11 9.06955 13.709 10.3329 15.8988L18.7624 30.5094C19.3124 31.4634 20.691 31.4634 21.241 30.5094L29.6722 15.8988C30.9338 13.7124 29.3422 11 26.8326 11H26.8309ZM18.7555 26.128L16.9197 22.575L12.4901 14.6526C12.1979 14.1456 12.5589 13.4958 13.1708 13.4958H18.7538V26.1297L18.7555 26.128ZM27.5098 14.6509L23.082 22.5767L21.2462 26.128V13.4941H26.8291C27.4411 13.4941 27.802 14.1439 27.5098 14.6509Z"
    fill="white"/>
</svg>
